<svg xmlns="http://www.w3.org/2000/svg" xmlns:xlink="http://www.w3.org/1999/xlink" version="1.1" x="0px" y="0px" viewBox="0 0 100 125" enable-background="new 0 0 100 100" xml:space="preserve"><g><polygon fill="none" points="14.073,19.119 14.073,89.426 27.251,89.426 27.251,19.118 20.663,11.588  "/><rect x="29.207" y="66.683" fill="none" width="12.245" height="5.116"/><rect x="6.957" y="39.757" fill="none" width="5.16" height="5.114"/><rect x="29.207" y="46.827" fill="none" width="12.245" height="17.899"/><rect x="29.207" y="39.757" fill="none" width="12.245" height="5.114"/><rect x="6.957" y="66.683" fill="none" width="5.16" height="5.116"/><rect x="87.883" y="39.757" fill="none" width="5.161" height="5.114"/><rect x="87.883" y="66.683" fill="none" width="5.161" height="5.116"/><polygon fill="none" points="72.748,19.118 72.748,89.426 85.926,89.426 85.926,19.119 79.336,11.588  "/><rect x="58.544" y="39.757" fill="none" width="12.247" height="5.114"/><polygon fill="none" points="43.409,19.119 43.409,89.426 56.588,89.426 56.588,19.119 49.998,11.588  "/><rect x="58.544" y="66.683" fill="none" width="12.247" height="5.116"/><rect x="58.544" y="46.827" fill="none" width="12.247" height="17.899"/><path d="M95,46.827V37.8h-7.117V18.383l-8.546-9.766l-8.544,9.766V37.8H58.544V18.383l-8.546-9.766l-8.545,9.766V37.8H29.207   V18.383l-8.544-9.766l-8.546,9.766V37.8H5v9.027h7.116v17.899H5v9.029h7.116v17.628h17.091V73.755h12.245v17.628h17.092V73.755   h12.247v17.628h17.091V73.755H95v-9.029h-7.117V46.827H95z M87.883,39.757h5.161v5.114h-5.161V39.757z M12.116,71.799h-5.16v-5.116   h5.16V71.799z M12.116,44.871h-5.16v-5.114h5.16V44.871z M27.251,89.426H14.073V19.119l6.59-7.53l6.588,7.53V89.426z    M41.453,71.799H29.207v-5.116h12.245V71.799z M41.453,64.726H29.207V46.827h12.245V64.726z M41.453,44.871H29.207v-5.114h12.245   V44.871z M56.588,89.426H43.409V19.119l6.589-7.53l6.59,7.53V89.426z M70.792,71.799H58.544v-5.116h12.247V71.799z M70.792,64.726   H58.544V46.827h12.247V64.726z M70.792,44.871H58.544v-5.114h12.247V44.871z M85.926,89.426H72.748V19.118l6.588-7.53l6.59,7.53   V89.426z M93.043,66.683v5.116h-5.161v-5.116H93.043z"/></g></svg>